<svg id="레이어_1" data-name="레이어 1" xmlns="http://www.w3.org/2000/svg" xmlns:xlink="http://www.w3.org/1999/xlink" viewBox="0 0 790 1080"><defs><style>.cls-1{fill:url(#linear-gradient);}.cls-2{fill:url(#linear-gradient-2);}.cls-3{fill:url(#linear-gradient-3);}.cls-4{fill:url(#linear-gradient-4);}</style><linearGradient id="linear-gradient" x1="372.79" y1="550.42" x2="709.84" y2="1134.2" gradientUnits="userSpaceOnUse"><stop offset="0" stop-color="#101043"/><stop offset="1" stop-color="#323264" stop-opacity="0.6"/></linearGradient><linearGradient id="linear-gradient-2" x1="288.56" y1="1095.32" x2="493.99" y2="328.66" gradientUnits="userSpaceOnUse"><stop offset="0" stop-color="#101043"/><stop offset="1" stop-color="#7e7ea7" stop-opacity="0"/></linearGradient><linearGradient id="linear-gradient-3" x1="587.67" y1="549.87" x2="813.97" y2="639.25" xlink:href="#linear-gradient"/><linearGradient id="linear-gradient-4" x1="132.36" y1="412.69" x2="650.74" y2="-72.62" xlink:href="#linear-gradient"/></defs><polygon class="cls-1" points="790 1063.35 790 1080 557.49 1080 418.47 839.22 334.75 694.2 282 602.84 373.36 550.09 463.59 498 495.22 552.79 790 1063.35"/><polygon class="cls-2" points="353.96 1080 418.47 839.22 495.22 552.79 549.08 351.79 434.71 321.15 373.37 550.09 373.36 550.09 334.75 694.2 231.37 1080 353.96 1080"/><polygon class="cls-3" points="790 566.35 790 693.21 566 604.75 609.34 495 790 566.35"/><polygon class="cls-4" points="708.82 0 195.73 480.37 69 345.01 437.51 0 708.82 0"/></svg>