<svg id="레이어_1" data-name="레이어 1" xmlns="http://www.w3.org/2000/svg" viewBox="0 0 460 120"><defs><style>.cls-1{fill:#101043;}.cls-2{fill:#7700e5;}</style></defs><polygon class="cls-1" points="51.56 40.83 51.56 79.17 92.3 79.17 92.3 98.34 44.38 98.34 30 83.96 30 36.04 44.38 21.66 92.3 21.66 92.3 40.83 51.56 40.83"/><rect class="cls-1" x="101.88" y="55.21" width="19.17" height="19.17" transform="translate(176.26 -46.67) rotate(90)"/><rect class="cls-2" x="121.05" y="40.83" width="9.58" height="9.58" transform="translate(171.46 -80.22) rotate(90)"/><path class="cls-1" d="M185,46.56c7,0,12.73,3.76,14.86,10.24h-7.3a8,8,0,0,0-7.6-4.53c-5.53,0-9.47,4-9.47,10.46s3.94,10.46,9.47,10.46a7.92,7.92,0,0,0,7.6-4.57h7.3C197.73,75.14,192,78.85,185,78.85c-9.1,0-16-6.66-16-16.12S175.9,46.56,185,46.56Z"/><path class="cls-1" d="M215.25,79C208,79,202.53,73.92,202.53,66s5.66-13,12.91-13,12.9,5,12.9,13S222.55,79,215.25,79Zm0-5.53c3.36,0,6.57-2.44,6.57-7.42s-3.12-7.43-6.47-7.43S209,61,209,66,211.86,73.46,215.25,73.46Z"/><path class="cls-1" d="M241.48,79c-6.29,0-10.69-3.67-11-8.34h6.39c.23,1.91,2,3.36,4.53,3.36s3.85-1.14,3.85-2.58c0-4.49-14.18-1.64-14.18-10.83,0-4.17,3.72-7.52,9.92-7.52s9.74,3.31,10.1,8.29h-6.07c-.18-1.95-1.72-3.26-4.21-3.26s-3.58,1-3.58,2.4c0,4.57,13.9,1.72,14.09,10.92C251.36,75.73,247.6,79,241.48,79Z"/><path class="cls-1" d="M256.38,58.7h-3V53.49h3v-6.2h6.38v6.2h5.62V58.7h-5.62V70.84c0,1.67.68,2.4,2.67,2.4h2.95v5.34h-4c-4.8,0-8-2-8-7.79Z"/><path class="cls-1" d="M286.52,46.56c7,0,12.72,3.76,14.85,10.24h-7.29a8,8,0,0,0-7.61-4.53c-5.52,0-9.46,4-9.46,10.46s3.94,10.46,9.46,10.46a7.93,7.93,0,0,0,7.61-4.57h7.29c-2.13,6.52-7.83,10.23-14.85,10.23-9.11,0-16-6.66-16-16.12S277.41,46.56,286.52,46.56Z"/><path class="cls-1" d="M305.51,45.07h6.34V78.58h-6.34Z"/><path class="cls-1" d="M317.15,53.49V78.58h6.34V53.49Z"/><path class="cls-1" d="M343.38,53.08c6.43,0,11.45,5,11.45,12.87s-5,13-11.45,13a10.24,10.24,0,0,1-8.29-4V90.54h-6.34V53.49h6.34v3.62A10,10,0,0,1,343.38,53.08Zm-1.68,5.57c-3.4,0-6.61,2.63-6.61,7.39s3.21,7.38,6.61,7.38,6.66-2.72,6.66-7.47S345.14,58.65,341.7,58.65Z"/><path class="cls-1" d="M373.34,53.08c6.43,0,11.45,5,11.45,12.87s-5,13-11.45,13a10.24,10.24,0,0,1-8.29-4V90.54h-6.34V53.49h6.34v3.62A10,10,0,0,1,373.34,53.08Zm-1.68,5.57c-3.4,0-6.61,2.63-6.61,7.39s3.21,7.38,6.61,7.38,6.66-2.72,6.66-7.47S375.1,58.65,371.66,58.65Z"/><path class="cls-1" d="M399.81,79c-7.29,0-12.59-5.07-12.59-12.95s5.16-13,12.59-13c7.25,0,12.36,4.94,12.36,12.41a14.43,14.43,0,0,1-.18,2.45H393.65c.32,3.71,2.85,5.79,6,5.79a5.17,5.17,0,0,0,5-3h6.84C410.18,75.32,406,79,399.81,79ZM393.7,63.68h11.91c-.09-3.31-2.72-5.39-6-5.39A5.82,5.82,0,0,0,393.7,63.68Z"/><path class="cls-1" d="M422.3,78.58H416V53.49h6.34v3.9a8.69,8.69,0,0,1,7.7-4.26v6.66h-1.68c-3.75,0-6,1.44-6,6.29Z"/><rect class="cls-1" x="317.16" y="45.62" width="6.34" height="6.34" transform="translate(369.12 -271.54) rotate(90)"/></svg>